<?xml version="1.0" encoding="UTF-8"?>
<svg xmlns="http://www.w3.org/2000/svg" width="32" height="32" viewBox="0 0 24 24" fill="#2196F3">
  <path d="M1,4.5 C1,3.11928813 2.11928813,2 3.5,2 L20.5,2 C21.8807119,2 23,3.11928813 23,4.5 L23,19.5 C23,20.8807119 21.8807119,22 20.5,22 L3.5,22 C2.11928813,22 1,20.8807119 1,19.5 L1,4.5 Z M9,3 L9,21 L15,21 L15,3 L9,3 Z M8,3 L3.5,3 C2.67157288,3 2,3.67157288 2,4.5 L2,19.5 C2,20.3284271 2.67157288,21 3.5,21 L8,21 L8,3 Z M16,3 L16,21 L20.5,21 C21.3284271,21 22,20.3284271 22,19.5 L22,4.5 C22,3.67157288 21.3284271,3 20.5,3 L16,3 Z" />
</svg>
